<?xml version="1.0" encoding="UTF-8"?>
<svg xmlns="http://www.w3.org/2000/svg" width="1652.3" height="582.5" viewBox="-65.1 -27.0 1376.9 485.4">
  <rect width="100%" height="100%" fill="#ffffff"/>
  <text x="1192.0" y="20" font-size="14.0" font-family="monospace" fill="black" text-anchor="middle" dominant-baseline="middle">transistor_and_gate</text>
  <g transform="rotate(-90,235.000,190.000)">
  <polyline points="219.76,190.0 238.81,190.0" stroke="#333" stroke-width="1.8" fill="none"/>
  <polyline points="238.81,201.43 238.81,178.57" stroke="#333" stroke-width="0.508" fill="none"/>
  <polyline points="238.81,193.81 250.24,205.24" stroke="#333" stroke-width="1.8" fill="none"/>
  <polyline points="238.81,186.19 250.24,174.76" stroke="#333" stroke-width="1.8" fill="none"/>
  <circle cx="242.62" cy="190.0" r="16.9164" stroke="#333" stroke-width="0.254" fill="none"/>
  <polygon points="248.716,179.332 245.668,176.284 242.62,182.38 248.716,179.332" stroke="#333" stroke-width="1.8" fill="black"/>
  <line x1="219.76" y1="190.0" x2="204.52" y2="190.0" stroke="#555" stroke-width="1.5"/>
  <text x="184.01999999999998" y="190.0" font-size="10.0" font-family="monospace" fill="#333" text-anchor="end" dominant-baseline="middle">B</text>
  <line x1="250.24" y1="205.24" x2="250.24" y2="220.48" stroke="#555" stroke-width="1.5"/>
  <text x="250.24" y="240.98000000000002" font-size="10.0" font-family="monospace" fill="#333" text-anchor="middle" dominant-baseline="middle">C</text>
  <line x1="250.24" y1="174.76" x2="250.24" y2="159.52" stroke="#555" stroke-width="1.5"/>
  <text x="250.24" y="139.01999999999998" font-size="10.0" font-family="monospace" fill="#333" text-anchor="middle" dominant-baseline="middle">E</text>
  </g>
  <text x="235.0" y="161.4636" font-size="14.0" font-family="monospace" fill="black" text-anchor="middle" dominant-baseline="middle">Q1</text>
  <polyline points="489.76,190.0 508.81,190.0" stroke="#333" stroke-width="1.8" fill="none"/>
  <polyline points="508.81,201.43 508.81,178.57" stroke="#333" stroke-width="0.508" fill="none"/>
  <polyline points="508.81,193.81 520.24,205.24" stroke="#333" stroke-width="1.8" fill="none"/>
  <polyline points="508.81,186.19 520.24,174.76" stroke="#333" stroke-width="1.8" fill="none"/>
  <circle cx="512.62" cy="190.0" r="16.9164" stroke="#333" stroke-width="0.254" fill="none"/>
  <polygon points="518.716,179.332 515.668,176.284 512.62,182.38 518.716,179.332" stroke="#333" stroke-width="1.8" fill="black"/>
  <line x1="489.76" y1="190.0" x2="474.52" y2="190.0" stroke="#555" stroke-width="1.5"/>
  <text x="454.02" y="190.0" font-size="10.0" font-family="monospace" fill="#333" text-anchor="end" dominant-baseline="middle">B</text>
  <line x1="520.24" y1="205.24" x2="520.24" y2="220.48" stroke="#555" stroke-width="1.5"/>
  <text x="520.24" y="240.98000000000002" font-size="10.0" font-family="monospace" fill="#333" text-anchor="middle" dominant-baseline="middle">C</text>
  <line x1="520.24" y1="174.76" x2="520.24" y2="159.52" stroke="#555" stroke-width="1.5"/>
  <text x="520.24" y="139.01999999999998" font-size="10.0" font-family="monospace" fill="#333" text-anchor="middle" dominant-baseline="middle">E</text>
  <text x="533.5364" y="190.0" font-size="14.0" font-family="monospace" fill="black" text-anchor="start" dominant-baseline="middle">Q2</text>
  <polygon points="93.904,99.76 106.096,99.76 106.096,130.24 93.904,130.24 93.904,99.76" stroke="#333" stroke-width="0.254" fill="none"/>
  <line x1="100.0" y1="130.24" x2="100.0" y2="137.86" stroke="#555" stroke-width="1.5"/>
  <text x="100.0" y="158.36" font-size="10.0" font-family="monospace" fill="#333" text-anchor="middle" dominant-baseline="middle">1</text>
  <line x1="100.0" y1="99.76" x2="100.0" y2="92.14" stroke="#555" stroke-width="1.5"/>
  <text x="100.0" y="71.64" font-size="10.0" font-family="monospace" fill="#333" text-anchor="middle" dominant-baseline="middle">2</text>
  <text x="110.096" y="115.0" font-size="14.0" font-family="monospace" fill="black" text-anchor="start" dominant-baseline="middle">R1</text>
  <text x="100.0" y="143.86" font-size="11.0" font-family="monospace" fill="#555" text-anchor="middle" dominant-baseline="middle">10K</text>
  <polygon points="93.904,249.76 106.096,249.76 106.096,280.24 93.904,280.24 93.904,249.76" stroke="#333" stroke-width="0.254" fill="none"/>
  <line x1="100.0" y1="280.24" x2="100.0" y2="287.86" stroke="#555" stroke-width="1.5"/>
  <text x="100.0" y="308.36" font-size="10.0" font-family="monospace" fill="#333" text-anchor="middle" dominant-baseline="middle">1</text>
  <line x1="100.0" y1="249.76" x2="100.0" y2="242.14" stroke="#555" stroke-width="1.5"/>
  <text x="100.0" y="221.64" font-size="10.0" font-family="monospace" fill="#333" text-anchor="middle" dominant-baseline="middle">2</text>
  <text x="110.096" y="265.0" font-size="14.0" font-family="monospace" fill="black" text-anchor="start" dominant-baseline="middle">R2</text>
  <text x="100.0" y="293.86" font-size="11.0" font-family="monospace" fill="#555" text-anchor="middle" dominant-baseline="middle">10K</text>
  <polygon points="393.904,174.76 406.096,174.76 406.096,205.24 393.904,205.24 393.904,174.76" stroke="#333" stroke-width="0.254" fill="none"/>
  <line x1="400.0" y1="205.24" x2="400.0" y2="212.86" stroke="#555" stroke-width="1.5"/>
  <text x="400.0" y="233.36" font-size="10.0" font-family="monospace" fill="#333" text-anchor="middle" dominant-baseline="middle">1</text>
  <line x1="400.0" y1="174.76" x2="400.0" y2="167.14" stroke="#555" stroke-width="1.5"/>
  <text x="400.0" y="146.64" font-size="10.0" font-family="monospace" fill="#333" text-anchor="middle" dominant-baseline="middle">2</text>
  <text x="410.096" y="190.0" font-size="14.0" font-family="monospace" fill="black" text-anchor="start" dominant-baseline="middle">R3</text>
  <text x="400.0" y="218.86" font-size="11.0" font-family="monospace" fill="#555" text-anchor="middle" dominant-baseline="middle">10K</text>
  <polygon points="228.904,354.76 241.096,354.76 241.096,385.24 228.904,385.24 228.904,354.76" stroke="#333" stroke-width="0.254" fill="none"/>
  <line x1="235.0" y1="385.24" x2="235.0" y2="392.86" stroke="#555" stroke-width="1.5"/>
  <text x="235.0" y="413.36" font-size="10.0" font-family="monospace" fill="#333" text-anchor="middle" dominant-baseline="middle">1</text>
  <line x1="235.0" y1="354.76" x2="235.0" y2="347.14" stroke="#555" stroke-width="1.5"/>
  <text x="235.0" y="326.64" font-size="10.0" font-family="monospace" fill="#333" text-anchor="middle" dominant-baseline="middle">2</text>
  <text x="245.096" y="370.0" font-size="14.0" font-family="monospace" fill="black" text-anchor="start" dominant-baseline="middle">R4</text>
  <text x="235.0" y="398.86" font-size="11.0" font-family="monospace" fill="#555" text-anchor="middle" dominant-baseline="middle">10K</text>
  <polygon points="498.904,354.76 511.096,354.76 511.096,385.24 498.904,385.24 498.904,354.76" stroke="#333" stroke-width="0.254" fill="none"/>
  <line x1="505.0" y1="385.24" x2="505.0" y2="392.86" stroke="#555" stroke-width="1.5"/>
  <text x="505.0" y="413.36" font-size="10.0" font-family="monospace" fill="#333" text-anchor="middle" dominant-baseline="middle">1</text>
  <line x1="505.0" y1="354.76" x2="505.0" y2="347.14" stroke="#555" stroke-width="1.5"/>
  <text x="505.0" y="326.64" font-size="10.0" font-family="monospace" fill="#333" text-anchor="middle" dominant-baseline="middle">2</text>
  <text x="515.096" y="370.0" font-size="14.0" font-family="monospace" fill="black" text-anchor="start" dominant-baseline="middle">R5</text>
  <text x="505.0" y="398.86" font-size="11.0" font-family="monospace" fill="#555" text-anchor="middle" dominant-baseline="middle">10K</text>
  <line x1="204.52" y1="174.76" x2="192.52" y2="174.76" stroke="#1565c0" stroke-width="1.8"/>
  <line x1="192.52" y1="174.76" x2="192.52" y2="153.4636" stroke="#1565c0" stroke-width="1.8"/>
  <line x1="192.52" y1="153.4636" x2="204.52" y2="153.4636" stroke="#1565c0" stroke-width="1.8"/>
  <line x1="204.52" y1="153.4636" x2="520.24" y2="153.4636" stroke="#1565c0" stroke-width="1.8"/>
  <line x1="520.24" y1="153.4636" x2="541.5364" y2="153.4636" stroke="#1565c0" stroke-width="1.8"/>
  <line x1="541.5364" y1="153.4636" x2="541.5364" y2="159.52" stroke="#1565c0" stroke-width="1.8"/>
  <line x1="541.5364" y1="159.52" x2="520.24" y2="159.52" stroke="#1565c0" stroke-width="1.8"/>
  <line x1="265.48" y1="174.76" x2="277.48" y2="174.76" stroke="#1565c0" stroke-width="1.8"/>
  <line x1="277.48" y1="174.76" x2="277.48" y2="232.48" stroke="#1565c0" stroke-width="1.8"/>
  <line x1="277.48" y1="232.48" x2="265.48" y2="232.48" stroke="#1565c0" stroke-width="1.8"/>
  <line x1="265.48" y1="232.48" x2="400.0" y2="232.48" stroke="#1565c0" stroke-width="1.8"/>
  <line x1="400.0" y1="232.48" x2="381.904" y2="232.48" stroke="#1565c0" stroke-width="1.8"/>
  <line x1="381.904" y1="232.48" x2="381.904" y2="212.86" stroke="#1565c0" stroke-width="1.8"/>
  <line x1="381.904" y1="212.86" x2="400.0" y2="212.86" stroke="#1565c0" stroke-width="1.8"/>
  <line x1="235.0" y1="347.14" x2="235.0" y2="335.14" stroke="#1565c0" stroke-width="1.8"/>
  <line x1="235.0" y1="335.14" x2="505.0" y2="335.14" stroke="#1565c0" stroke-width="1.8"/>
  <line x1="505.0" y1="335.14" x2="505.0" y2="347.14" stroke="#1565c0" stroke-width="1.8"/>
  <line x1="546.52" y1="167.14" x2="546.52" y2="392.86" stroke="#1565c0" stroke-width="1.8"/>
  <line x1="474.52" y1="190.0" x2="474.52" y2="147.52" stroke="#1565c0" stroke-width="1.8"/>
  <line x1="474.52" y1="147.52" x2="546.52" y2="147.52" stroke="#1565c0" stroke-width="1.8"/>
  <line x1="546.52" y1="147.52" x2="546.52" y2="190.0" stroke="#1565c0" stroke-width="1.8"/>
  <line x1="400.0" y1="167.14" x2="400.0" y2="147.52" stroke="#1565c0" stroke-width="1.8"/>
  <line x1="400.0" y1="147.52" x2="546.52" y2="147.52" stroke="#1565c0" stroke-width="1.8"/>
  <line x1="546.52" y1="147.52" x2="546.52" y2="167.14" stroke="#1565c0" stroke-width="1.8"/>
  <line x1="505.0" y1="392.86" x2="505.0" y2="404.86" stroke="#1565c0" stroke-width="1.8"/>
  <line x1="505.0" y1="404.86" x2="546.52" y2="404.86" stroke="#1565c0" stroke-width="1.8"/>
  <line x1="546.52" y1="404.86" x2="546.52" y2="392.86" stroke="#1565c0" stroke-width="1.8"/>
  <circle cx="546.52" cy="190.0" r="3.0" stroke="#1565c0" stroke-width="0" fill="#1565c0"/>
  <line x1="187.0" y1="92.14" x2="187.0" y2="392.86" stroke="#1565c0" stroke-width="1.8"/>
  <line x1="235.0" y1="220.48" x2="235.0" y2="232.48" stroke="#1565c0" stroke-width="1.8"/>
  <line x1="235.0" y1="232.48" x2="187.0" y2="232.48" stroke="#1565c0" stroke-width="1.8"/>
  <line x1="187.0" y1="232.48" x2="187.0" y2="220.48" stroke="#1565c0" stroke-width="1.8"/>
  <line x1="100.0" y1="92.14" x2="100.0" y2="80.14" stroke="#1565c0" stroke-width="1.8"/>
  <line x1="100.0" y1="80.14" x2="187.0" y2="80.14" stroke="#1565c0" stroke-width="1.8"/>
  <line x1="187.0" y1="80.14" x2="187.0" y2="92.14" stroke="#1565c0" stroke-width="1.8"/>
  <line x1="100.0" y1="242.14" x2="100.0" y2="230.14" stroke="#1565c0" stroke-width="1.8"/>
  <line x1="100.0" y1="230.14" x2="187.0" y2="230.14" stroke="#1565c0" stroke-width="1.8"/>
  <line x1="187.0" y1="230.14" x2="187.0" y2="242.14" stroke="#1565c0" stroke-width="1.8"/>
  <line x1="235.0" y1="392.86" x2="235.0" y2="404.86" stroke="#1565c0" stroke-width="1.8"/>
  <line x1="235.0" y1="404.86" x2="187.0" y2="404.86" stroke="#1565c0" stroke-width="1.8"/>
  <line x1="187.0" y1="404.86" x2="187.0" y2="392.86" stroke="#1565c0" stroke-width="1.8"/>
  <circle cx="187.0" cy="220.48" r="3.0" stroke="#1565c0" stroke-width="0" fill="#1565c0"/>
  <circle cx="187.0" cy="242.14" r="3.0" stroke="#1565c0" stroke-width="0" fill="#1565c0"/>
  <rect x="-25.1" y="122.9" width="62.0" height="30.0" fill="white" opacity="0.85"/>
  <line x1="100.0" y1="137.86" x2="34.903999999999996" y2="137.86" stroke="#1565c0" stroke-width="1.6"/>
  <path d="M -17.1 128.9 L 18.9 128.9 L 34.9 137.9 L 18.9 146.9 L -17.1 146.9 Z" fill="#ffffff" stroke="#1565c0" stroke-width="1.6"/>
  <text x="5.9" y="137.9" font-size="12.0" fill="#1565c0" text-anchor="middle" dominant-baseline="middle" font-style="italic">A</text>
  <rect x="-25.1" y="272.9" width="62.0" height="30.0" fill="white" opacity="0.85"/>
  <line x1="100.0" y1="287.86" x2="34.903999999999996" y2="287.86" stroke="#1565c0" stroke-width="1.6"/>
  <path d="M -17.1 278.9 L 18.9 278.9 L 34.9 287.9 L 18.9 296.9 L -17.1 296.9 Z" fill="#ffffff" stroke="#1565c0" stroke-width="1.6"/>
  <text x="5.9" y="287.9" font-size="12.0" fill="#1565c0" text-anchor="middle" dominant-baseline="middle" font-style="italic">B</text>
  <rect x="-25.1" y="159.8" width="62.0" height="30.0" fill="white" opacity="0.85"/>
  <line x1="204.52" y1="174.76" x2="34.903999999999996" y2="174.76" stroke="#1565c0" stroke-width="1.6"/>
  <path d="M -17.1 165.8 L 18.9 165.8 L 34.9 174.8 L 18.9 183.8 L -17.1 183.8 Z" fill="#ffffff" stroke="#1565c0" stroke-width="1.6"/>
  <text x="5.9" y="174.8" font-size="12.0" fill="#1565c0" text-anchor="middle" dominant-baseline="middle" font-style="italic">VCC</text>
  <rect x="586.5" y="144.5" width="62.0" height="30.0" fill="white" opacity="0.85"/>
  <line x1="520.24" y1="159.52" x2="588.5364" y2="159.52" stroke="#1565c0" stroke-width="1.6"/>
  <path d="M 640.5 150.5 L 604.5 150.5 L 588.5 159.5 L 604.5 168.5 L 640.5 168.5 Z" fill="#ffffff" stroke="#1565c0" stroke-width="1.6"/>
  <text x="617.5" y="159.5" font-size="12.0" fill="#1565c0" text-anchor="middle" dominant-baseline="middle" font-style="italic">VCC</text>
  <rect x="109.9" y="348.1" width="62.0" height="30.0" fill="white" opacity="0.85"/>
  <line x1="235.0" y1="363.14" x2="169.904" y2="363.14" stroke="#1565c0" stroke-width="1.6"/>
  <path d="M 117.9 354.1 L 153.9 354.1 L 169.9 363.1 L 153.9 372.1 L 117.9 372.1 Z" fill="#ffffff" stroke="#1565c0" stroke-width="1.6"/>
  <text x="140.9" y="363.1" font-size="12.0" fill="#1565c0" text-anchor="middle" dominant-baseline="middle" font-style="italic">GND</text>
  <rect x="379.9" y="332.1" width="62.0" height="30.0" fill="white" opacity="0.85"/>
  <line x1="505.0" y1="347.14" x2="439.904" y2="347.14" stroke="#1565c0" stroke-width="1.6"/>
  <path d="M 387.9 338.1 L 423.9 338.1 L 439.9 347.1 L 423.9 356.1 L 387.9 356.1 Z" fill="#ffffff" stroke="#1565c0" stroke-width="1.6"/>
  <text x="410.9" y="347.1" font-size="12.0" fill="#1565c0" text-anchor="middle" dominant-baseline="middle" font-style="italic">GND</text>
  <rect x="586.5" y="205.5" width="80.1" height="30.0" fill="white" opacity="0.85"/>
  <line x1="520.24" y1="220.48" x2="588.5364" y2="220.48" stroke="#1565c0" stroke-width="1.6"/>
  <path d="M 658.6 211.5 L 604.5 211.5 L 588.5 220.5 L 604.5 229.5 L 658.6 229.5 Z" fill="#ffffff" stroke="#1565c0" stroke-width="1.6"/>
  <text x="626.6" y="220.5" font-size="12.0" fill="#1565c0" text-anchor="middle" dominant-baseline="middle" font-style="italic">A_AND_B</text>
</svg>
